<svg width="31" height="24" viewBox="0 0 31 24" fill="none" xmlns="http://www.w3.org/2000/svg">
<path fill-rule="evenodd" clip-rule="evenodd" d="M0 0.854167C0 0.627628 0.0899925 0.410367 0.25018 0.25018C0.410367 0.0899925 0.627628 0 0.854167 0H29.8958C30.1224 0 30.3396 0.0899925 30.4998 0.25018C30.66 0.410367 30.75 0.627628 30.75 0.854167C30.75 1.08071 30.66 1.29797 30.4998 1.45815C30.3396 1.61834 30.1224 1.70833 29.8958 1.70833H0.854167C0.627628 1.70833 0.410367 1.61834 0.25018 1.45815C0.0899925 1.29797 0 1.08071 0 0.854167ZM0 11.9583C0 11.7318 0.0899925 11.5145 0.25018 11.3543C0.410367 11.1942 0.627628 11.1042 0.854167 11.1042H29.8958C30.1224 11.1042 30.3396 11.1942 30.4998 11.3543C30.66 11.5145 30.75 11.7318 30.75 11.9583C30.75 12.1849 30.66 12.4021 30.4998 12.5623C30.3396 12.7225 30.1224 12.8125 29.8958 12.8125H0.854167C0.627628 12.8125 0.410367 12.7225 0.25018 12.5623C0.0899925 12.4021 0 12.1849 0 11.9583ZM0 23.0625C0 22.836 0.0899925 22.6187 0.25018 22.4585C0.410367 22.2983 0.627628 22.2083 0.854167 22.2083H29.8958C30.1224 22.2083 30.3396 22.2983 30.4998 22.4585C30.66 22.6187 30.75 22.836 30.75 23.0625C30.75 23.289 30.66 23.5063 30.4998 23.6665C30.3396 23.8267 30.1224 23.9167 29.8958 23.9167H0.854167C0.627628 23.9167 0.410367 23.8267 0.25018 23.6665C0.0899925 23.5063 0 23.289 0 23.0625Z" fill="black"/>
</svg>
